<?xml version="1.0" standalone="no"?>
<!DOCTYPE svg PUBLIC "-//W3C//DTD SVG 20010904//EN"
 "http://www.w3.org/TR/2001/REC-SVG-20010904/DTD/svg10.dtd">
<svg version="1.0" xmlns="http://www.w3.org/2000/svg"
 width="64.000000pt" height="64.000000pt" viewBox="0 0 64.000000 64.000000"
 preserveAspectRatio="xMidYMid meet">

<g transform="translate(0.000000,64.000000) scale(0.100000,-0.100000)"
fill="#000000" stroke="none">
<path d="M120 611 c0 -16 6 -32 13 -35 10 -5 10 -7 0 -12 -7 -3 -13 -17 -13
-30 l0 -24 200 0 200 0 0 24 c0 13 -6 27 -13 30 -9 5 -9 7 1 12 6 3 12 19 12
35 l0 29 -200 0 -200 0 0 -29z"/>
<path d="M232 337 c-23 -24 -29 -52 -13 -61 5 -4 21 14 34 39 28 49 16 62 -21
22z"/>
<path d="M387 315 c24 -44 43 -51 43 -16 0 19 -39 61 -57 61 -7 0 0 -20 14
-45z"/>
<path d="M310 175 c0 -14 5 -25 10 -25 6 0 10 11 10 25 0 14 -4 25 -10 25 -5
0 -10 -11 -10 -25z"/>
</g>
</svg>
