<svg height="183.52" viewBox="0 0 658.1 183.52" width="658.1" xmlns="http://www.w3.org/2000/svg"><path d="m223.09 150.76q-1.91-2.41-5.15-10l-34.76-81.68h-3.8l-33.54 81.66q-2.94 7.23-5.32 9.84a7.88 7.88 0 0 1 -6.06 2.61h-1v3.81h23.34v-3.77l-1-.13q-6.3-.54-6.3-4.29c0-1.06.83-3.59 2.51-7.6l5.7-14.14h41.29l5.8 13.71q2.94 7 2.94 8.83a3 3 0 0 1 -1.28 2.88c-.86.49-2.53.74-5 .74h-1v3.77h28v-3.77h-.79a5.65 5.65 0 0 1 -4.58-2.47zm-63.59-28.45 18.23-44.85 19 44.85zm117.77-35.66a28.22 28.22 0 0 0 -12.51 3.18 57.46 57.46 0 0 0 -13.3 9.55v-12.73l-22.78 8.6v.94l3.67 1.53c3.51 1.42 5.67 3 6.49 4.66s1.23 5.41 1.23 11.14v53.82q0 7.65-2.09 10c-1.39 1.58-4.31 2.38-8.76 2.38h-.55v3.77h34.18v-3.77h-.79c-4.35 0-7.2-.8-8.56-2.38s-2-4.93-2-10v-10.84a60.37 60.37 0 0 0 8.13 1.76 55.37 55.37 0 0 0 8 .59q16.95 0 27.5-10.63t10.55-27.64q0-14.76-8-24.35a25.33 25.33 0 0 0 -20.41-9.58zm9.73 59.75q-6.24 8.26-15.91 8.27a23.81 23.81 0 0 1 -10.61-2.67 27.14 27.14 0 0 1 -9-7.11v-40.3a42.22 42.22 0 0 1 9.88-6 24.22 24.22 0 0 1 9.33-2 19.79 19.79 0 0 1 16.28 8q6.3 8 6.3 20.72t-6.27 21.09zm73.58-59.75a28.22 28.22 0 0 0 -12.51 3.18 57.25 57.25 0 0 0 -13.3 9.55v-12.73l-22.77 8.6v.94l3.67 1.53c3.51 1.42 5.67 3 6.49 4.66s1.22 5.41 1.22 11.14v53.82q0 7.65-2.08 10c-1.39 1.58-4.31 2.38-8.76 2.38h-.54v3.77h34.18v-3.77h-.79c-4.35 0-7.2-.8-8.56-2.38s-2-4.93-2-10v-10.84a60.37 60.37 0 0 0 8.13 1.76 55.37 55.37 0 0 0 7.95.59q17 0 27.5-10.63t10.55-27.64q0-14.76-8-24.35a25.31 25.31 0 0 0 -20.37-9.58zm9.74 59.75q-6.24 8.26-15.91 8.27a23.81 23.81 0 0 1 -10.61-2.67 27 27 0 0 1 -9-7.11v-40.3a42.22 42.22 0 0 1 9.88-6 24.22 24.22 0 0 1 9.33-2 19.79 19.79 0 0 1 16.28 8q6.3 8 6.3 20.72t-6.26 21.09zm50.28 4.42q-2-2.35-2-10v-84.57l-22.78 8.59v1l3.49 1.47q5.5 2.38 6.7 4.78t1.19 11.21v57.53q0 7.68-2 10t-8.33 2.37h-1.1v3.8h34.23v-3.77h-.79q-6.56-.04-8.6-2.41zm70.86-2.26q-2-3.7-2-14.8v-29q0-9.56-4.59-13.84t-14.87-4.27q-12.48 0-20.86 6.43-8.49 6.63-8.5 14v1.84l13.15-4.25v-3.06c0-3.23.93-5.63 2.81-7.23s4.69-2.38 8.4-2.38a15 15 0 0 1 9.17 2.75 7.86 7.86 0 0 1 3.18 4.2 35.64 35.64 0 0 1 .73 8.8v9.63l-8.38 2.44q-16.32 4.67-23.42 10t-7.09 13a15.72 15.72 0 0 0 4.46 11.47 15 15 0 0 0 11.2 4.56 25 25 0 0 0 12.76-3.49 40 40 0 0 0 11.41-10.45q1 7 4.07 10.45a10.43 10.43 0 0 0 8.22 3.49 24.56 24.56 0 0 0 11.92-3.3v-3.55a28.73 28.73 0 0 1 -4 .31q-5.8-.03-7.76-3.75zm-13.35-14.92q0 7.47-3.73 11.7-5.82 6.43-12.67 6.43a9.44 9.44 0 0 1 -7.13-3.25 10.83 10.83 0 0 1 -3-7.65q0-6.74 4.44-10.32t18.63-8.05l3.49-1.1zm109-41.33h.92q5.38 0 5.38 3.92a35.26 35.26 0 0 1 -1.77 8.7l-11.28 36.83-21.92-53.22h-3.91l-18.53 52.86-12.57-36.47c-.09-.2-.4-1.28-.93-3.25 0-.24-.26-1.06-.67-2.44a10.29 10.29 0 0 1 -.56-2.88q0-4 6.69-4h.79v-3.82h-26.19v3.77h.79q3.81 0 8 12.56l18.61 54h4l19.57-54.87 22.31 54.82h3.84l16.94-53.92q4-12.62 8.5-12.62h.88v-3.74h-18.86zm67.41 35.86q-3.63-4.41-13.07-9.62l-6.45-3.55q-12.93-7.17-12.94-14a9.82 9.82 0 0 1 3.29-7.63 12.05 12.05 0 0 1 8.43-3 16.26 16.26 0 0 1 7.42 1.34 13.4 13.4 0 0 1 3.89 3 11.58 11.58 0 0 1 2.12 3.74 28.18 28.18 0 0 1 1.16 5.06l.19 1.17h4.92v-14.19a57.78 57.78 0 0 0 -19.48-3.84q-10.49 0-16.62 4.84a15.86 15.86 0 0 0 -6.14 13.16q0 11.22 16.69 20.33l5.82 3.19q9 4.85 11.29 7.42a8.84 8.84 0 0 1 2.33 6.06 12.16 12.16 0 0 1 -4.53 9.47 15.92 15.92 0 0 1 -10.84 3.95q-14.64 0-17.27-16.84l-.19-1.22h-4.92l1.49 17.26q8.5 4.57 20.88 4.58 11.78 0 18.93-5.42a17.13 17.13 0 0 0 7.17-14.36 17 17 0 0 0 -3.54-10.9z" fill="#ab862d"/><path d="m129.49 88.26c-9.26-2.15-22.44-5.82-29.9-13s-30.91 4.4-30.91 4.4c-6.86 3.29-19.16 9-15.16 15.38s10.22 16.39 4.86 23.69-14.38 27.72-1.73 25.79 29.41-16.35 39.93-24.88 19 2 30.83-9.3 11.33-19.92 2.08-22.08zm-2.22-63.94c-6.58-5.79-14.7 8.17-15.43 16.54 0 0 1.39 22.89 9.58 29.67s20-4.52 21.38-13.33-8.94-27.07-15.53-32.88zm-37.61 25.41c10-6.22.75-32.14-9.2-41.78s-20.46-9.02-25.46-5.95 7.71 25.82 8.67 36.16c.87 9.39 16 17.78 25.99 11.57zm-50.2-20.2c-5.46-10.43-20.01-16.23-25.99-11.53s-5 23.92 4.94 36.52c4.71 6 18.59 17.13 29 11.62s-2.41-26.14-7.95-36.61zm-33 42.34c-7.12 4.44-8.33 19-3.7 29 2.84 6.15 18.94 20.87 30 18s6.71-21-.49-29.4-18.68-22.05-25.82-17.6z" fill="#c09a56" fill-rule="evenodd"/></svg>