<svg height="187.16" viewBox="0 0 700 187.16" width="700" xmlns="http://www.w3.org/2000/svg"><path d="m393.67 64.36-6.38-9.15c7.39-5.73 7.88-13.12 5.51-20.92-2.52-8.28-7.55-14.13-17.15-14.73.44-4.22.88-8.4 1.35-12.81l-12 3.69c-4.09-8-10.89-10.7-19-10.42s-14.77 3.34-18.1 11.57l-11.42-5.14v12.84c-9.07 1-13.9 6.61-16.25 14.58-2.23 7.57-1.72 14.77 4.77 20.57l-8 8.87 12.43 4.23c-1.78 8.91 1.59 15.52 8.57 20.37s14.34 6.16 22.12 1.48c1.73 3 3.38 5.86 5.15 8.94 2.44-3.26 4.67-6.24 7-9.28 6.75 4.94 13.74 4.47 20.4.48 8.56-5.13 13.12-12.46 10.46-22.94zm-13.67-40.87a7.93 7.93 0 0 1 5.87 8.29 10.85 10.85 0 0 0 2.28 7.46c3.56 4.63 3.46 7.26-.62 11.47a32 32 0 0 1 -3.11 2.53l-.39-.41c.61-1 1.28-1.93 1.83-2.94a6.64 6.64 0 0 0 -.91-8c-2.74-3.14-3.37-6.65-3.25-10.59.13-4.3-1.28-5.83-5.61-6.63-.35-.07-.69-.23-1.31-.43 1.75-1.6 3.53-1.24 5.22-.75zm-14.54-10.77 8.89-2.81c-.35 3.48-.68 6.64-1 9.5l-9.16 5.28c1.59-3.63 2.63-7.56 1.27-11.97zm-34.14-1.72c.58-3.9 6.09-8.53 10.88-6.11 2.76 1.38 5.65.92 8.49-.17 5.4-2.08 11.5 2.57 11.13 8.63a13.3 13.3 0 0 1 -1.07-1.15c-2.54-3.54-5.36-4.7-9.37-3.11a14 14 0 0 1 -10.14 0c-4.89-1.64-6.11-1.15-8.8 3.07-.2.3-.44.57-.94 1.22a12.65 12.65 0 0 1 -.18-2.38zm-12.59-1 8.34 3.81 2.18 10.66a15.74 15.74 0 0 0 -10.52-5zm-15.45 35.67a6.45 6.45 0 0 1 1.54-5.47c2.38-2.54 2.82-5.65 2.71-9-.2-5.59 5.91-9.68 11.68-7.49-.88.34-1.45.61-2 .79-3.39 1-5.33 3.09-5.15 6.59a16.89 16.89 0 0 1 -3.82 11.57c-2.53 3.35-2.2 5.52.65 8.59l1.06 1.15c-3.25.36-6.31-3.58-6.67-6.73zm-2.18 16.63c2.2-2.41 4.14-4.55 5.69-6.26l11.5 1.28a16.14 16.14 0 0 0 -8 8.09zm36.55 23.48c-3.32 3.69-9.85 3.56-12.29-.76-1.64-2.92-4.28-4.37-7.32-5.32-5.79-1.81-7.82-8.29-3.73-13.16v2.2c.06 3.63 1.88 6.22 5.43 7.08a13.62 13.62 0 0 1 8.26 5.91c3 4.33 4.41 4.71 9.37 2.67a8.28 8.28 0 0 1 1.13-.22 9.41 9.41 0 0 1 -.85 1.6zm7.8 8.28c-1.32-2.31-2.51-4.41-3.44-6l4-9.64 4 9.55zm-7.3-27.83-10.81 8.07a6.38 6.38 0 0 1 -.17-2.19c1.28-4.15 2.65-8.28 4.05-12.57a9.8 9.8 0 0 1 -6.07-5.41c-1.35-2.74-1.09-5.37 0-8.36l-9.32-6.51v-.55a9.73 9.73 0 0 1 2.24-.58c3.8-.06 7.61 0 11.63 0-.79-3.74.64-6.54 3.39-8.74s5.59-3.2 9.36-1.75c.84-3 1.61-5.93 2.49-8.79a7 7 0 0 1 1.12-1.7 5.61 5.61 0 0 1 1.16 1.46c.9 2.63 1.69 5.3 2.53 8 .18.58.39 1.15.58 1.7 7.58-1.55 13.6 3.19 13 10.37h9.07c1.22 0 2.65-.8 3.85.91l-5 3.67-5 3.62c2.33 5.6.2 11-5.84 14.11 1.26 3.61 2.54 7.29 3.84 11 .3.87 1 1.76-.52 2.48l-11.18-8.26c-4.83 3.68-9.48 3.79-14.4.02zm41.54 8.52c-1 2.9-2.8 5-6.05 5.69-3 .6-4.94 2.65-6.54 5.12-3.21 5-10.57 4.76-13.92-.6.7.18 1.22.28 1.71.44 4.09 1.37 7.29.41 9.53-3.25a13 13 0 0 1 7.77-5.67c5.14-1.58 5.81-2.54 5.41-7.86 0-.31 0-.62 0-1.19a6.44 6.44 0 0 1 2.09 7.32zm-4.8-16.53 10.65-1.28 4.16 6-7.48 1.54zm-100.89 25.12c4.3 3.44 9.48 5 14.73 6.27 1.22.31 2.47.52 3.7.78l.34-.58a11.32 11.32 0 0 1 -1.64-1.26c-4.48-4.77-8.69-9.75-11.06-16a12.5 12.5 0 0 1 -1-6.9c2.66 3.58 5.1 7 7.72 10.35a33.09 33.09 0 0 0 9.8 9c-.14-1.42-.19-2.29-.32-3.16-.69-4.44-1.3-8.9-2.16-13.31a44.13 44.13 0 0 0 -2.44-9.31c-4.52-10.29-9.08-20.55-11.61-32-2.36 2.3-4.72 4.37-6.84 6.68-4.84 5.22-8.6 11.1-10.22 18.16-1.35 6.14.32 11.8 2.33 17.45 1.9 5.24 4.2 10.26 8.67 13.83zm130.08-7.24c2.66-3.32 5.07-6.83 7.59-10.26-.25 10.45-7 17.26-13.24 24.68 2.62-.68 5.25-1.32 7.85-2 7-2 12.91-5.41 16.18-12.17 1.72-3.56 3-7.36 4.37-11.08a24.36 24.36 0 0 0 -.68-18.5 44.84 44.84 0 0 0 -9.84-14.31c-1.69-1.71-3.52-3.29-5.47-5.09-.64 2.49-1 4.55-1.7 6.48-2.46 6.69-5 13.35-7.6 20-1.07 2.76-2.63 5.4-3.3 8.25-1.29 5.53-2.13 11.17-3.12 16.77-.34 1.89-.57 3.8-.93 6.22 4.35-2.47 7.21-5.67 9.89-8.99zm-147.91 11a82.41 82.41 0 0 0 9.08-.77c-4.6-2.27-8.94-4.14-13-6.49a17.77 17.77 0 0 1 -8.82-10.95c3.49 2.18 6.75 4.47 10.24 6.34s7.24 3.37 11.81 3.26c-1.65-2.75-3-5.17-4.53-7.48-2.24-3.39-4.54-6.78-8-9.12a62.1 62.1 0 0 1 -18.65-19.44 29.9 29.9 0 0 0 -6.55 12.21c-1.2 5 0 9.68 2.18 14.16 5.41 10.89 13.51 17.97 26.24 18.26zm169.76-8.52c8.27-.53 14.76-5.1 21.23-9.73l.41.31a37.52 37.52 0 0 1 -2.18 4.29c-4.72 6.95-12.1 9.79-19.65 12.53a37.68 37.68 0 0 0 6.11 1 26.71 26.71 0 0 0 17.15-4.11c6.58-4.25 10.55-10.43 13.32-17.54 3.25-8.34-.59-17.16-6-22.75-3.71 7-9.27 12.31-15.32 17.08-3.29 2.6-6.77 4.89-9.09 8.48l-6.45 10zm-13.19 17.35c4.77 2.09 9.88 4.07 14.73 6.54 5.41 2.76 10.52 6.1 15.89 9 7.6 4 15.95 5.56 24.37 6.73 1.82.26 3.67.37 5.75.57-14.6-25.29-39.11-33.16-60.74-22.84zm-195.2 22.81c1.88-.2 3.67-.23 5.39-.59 6-1.25 12-2.47 17.95-4 5.11-1.28 9.31-4.49 13.81-7.07 7.62-4.37 15.37-8.48 24.07-11-25.97-11.87-49.6 1.28-61.22 22.66zm140.77-60.5c3.08.36 5.58-2.31 6-6 .48-4-1.52-6-5.52-5.51-1.17.16-2.34.34-3.71.54-.34-1.83-.66-3.52-1-5.21 4.86-1 6.72-2.54 6.6-5.37s-3.52-6.09-6.51-6.2a5 5 0 0 0 -3 .73c-2.16 1.64-2.08 4.28-2.35 6.94l-5.28-.43c.56-5.06-.33-7.21-3.14-8s-7.13 1.58-8 4.46c-.74 2.4-1.61 4.32 5.74 7.56-.59 1.61-1.19 3.23-1.84 5l-2.52-1.3a4.5 4.5 0 0 0 -5.44.69c-2 1.74-2.16 5.17-.38 8.21 1.92 3.25 4.56 3.7 7.36 1.18 1-.92 1.89-2 2.91-3.11l4.22 3.58c-3.63 3.77-4.34 6.29-2.49 8.57s6.49 3 9.08 1c4.1-3.09 1.09-6.28-.31-9.53l4.46-3a13.1 13.1 0 0 0 1.77 3.1 6.83 6.83 0 0 0 3.35 2.1zm-12.78-4.79c-4.17.36-6.51-2.29-6.65-5.76a6.22 6.22 0 0 1 12.41-.86c.2 3.91-1.97 6.41-5.76 6.62zm7.69 4.93c.19 1.77.42 3.85.7 6.41l7.08 5.14c-1-3.42-1.92-6.28-2.65-8.67zm-23 11.12 6.21-4.35c.2-3 .36-5.46.51-7.7l-3.63 2c-1.05 3.36-2.03 6.55-3.1 10.05zm34.78-24.23 5.57-4.08c-1.76-.43-3.38-.18-4.88-.49-3-.62-4.62 1.26-6.34 2.85zm-31.57-3.07-2.18-1.84h-9.67v.39l4.93 3.66c1.91-2.14 4.43-2.13 6.92-2.21zm15.18-12.33c-.39-1.23-.75-2.36-1.12-3.49s-.77-2.36-1.29-4l-2.09 6c.9 1.63 1.74 3.13 2.65 4.77zm-15.15 12.51c0-.06 0-.12.05-.18h-.08zm35.3-27.84v4.22c2.25-.62 2.65-1.55 2.18-4.88zm-47.51-.14v2.81l3.54 1.2c.38-2.6.64-2.61-3.54-4.01zm-15.32 47 3 1.2 2.07-2.77c-3-1.38-3.66-1.18-5.07 1.53zm78.25-1.61-2.49.85c.91 1.8 2 1.18 3.23.77a4.06 4.06 0 0 0 -.16-.83 6.84 6.84 0 0 0 -.58-.83zm-38.35 29.52 1.38-1.69-1.16-1.62c-1.56 1.82-1.56 1.82-.22 3.31zm-.76-45.51a3.46 3.46 0 0 0 -3.48 3.68 3.31 3.31 0 0 0 3.54 3.59c2.27 0 3.6-1.39 3.57-3.75a3.47 3.47 0 0 0 -3.63-3.52zm-167.21 111.42q8.49-1.84 12.94-7.78a18.14 18.14 0 0 0 3.64-11.18 15.53 15.53 0 0 0 -6.44-12.73 25 25 0 0 0 -15.88-5.06h-28.84l.7 13.33v41l-.81 13.33h17.7l-.71-13.33v-14.93h1.84l12 19.37 4.55 8.85h19.45l-6-8.86zm-15.68-6.3h-2v-21.92h4.15q6.36 0 10 2.71a8.66 8.66 0 0 1 3.59 7.27 10.64 10.64 0 0 1 -3.24 8q-4.11 3.94-12.5 3.94zm-107.88-30.45h-17.7l.71 13.33v14.11h-20.22v-14.11l.71-13.33h-17.8l.81 13.33v41l-.71 13.29h17.59l-.6-13.33v-17.61h20.22v17.61l-.71 13.33h17.7l-.81-13.33v-41zm51 0h-16.62l.91 4.38-17.7 49.91-5.46 13.33h12q1.22-4.18 1.72-6.33 1.72-6.22 2-7l1.52-4.09h20.63l1.41 4.09 3.44 13.33h20.33l-5.36-13.33zm-18.85 41.25 7.8-23.8 7.57 23.8zm164.31-4.5q8.49-1.84 12.94-7.78a18.14 18.14 0 0 0 3.64-11.18 15.53 15.53 0 0 0 -6.47-12.73 25 25 0 0 0 -15.87-5.06h-.93l-.58.16c-5.55 1.39-11.23 2.57-16.72 3.71l-1.33.27a30.3 30.3 0 0 1 -3.93.48l-1.71.15-3.35.35.44 8.21v41l-.81 13.33h17.69l-.71-13.33v-14.93h1.82l12 19.37 4.55 8.85h19.41l-6-8.86zm-15.67-6.3h-2v-21.92h4.15q6.38 0 10 2.71a8.66 8.66 0 0 1 3.59 7.27 10.64 10.64 0 0 1 -3.24 8q-4.1 3.94-12.5 3.94zm403.13-30.45h-11l.78 13.23v31.52l-29.12-44.75h-13.74l.7 13.33v41l-.84 13.29h11l-.6-13.33v-32.2l29.6 45.53h13.15l-.61-13.33v-41zm-96.16-1.27q-13.75 0-21.43 9t-7.69 26.17q0 15.66 7.89 25.2t21.23 9.53q13.76 0 21.74-9.05t8-25.68q0-16.83-8.59-26.27-8.11-8.89-21.15-8.9zm9.94 54.1q-3.24 7.39-9.91 7.39-5.87 0-9-6.27t-3.13-20.09q0-14.9 3.84-21.41 3-5.14 8.5-5.15 5.76 0 9.15 6.27t3.38 20.29q-.03 12.36-2.83 18.97zm-248-39.4.61-13.43h-17.61l.7 13.43v40.86l-.6 13.33h17.59l-.71-13.33zm380.59 14-6.23-2.9q-5.46-2.53-7.33-4.33a6 6 0 0 1 -1.87-4.53 7.86 7.86 0 0 1 2.68-6.17 10.64 10.64 0 0 1 7.33-2.39 18.53 18.53 0 0 1 7.79 2 31.36 31.36 0 0 1 8.29 5.88v-13q-3.94-1.08-6.17-1.56a50.35 50.35 0 0 0 -9.3-1.46q-10.92 0-18.51 5.79t-7.58 13.47a16.94 16.94 0 0 0 3.54 10.51q4 5.25 12.84 9.44l5.36 2.53a24.27 24.27 0 0 1 6.67 4.52 7.26 7.26 0 0 1 2.33 5.11 8.66 8.66 0 0 1 -3.09 6.86c-2.05 1.78-4.87 2.68-8.44 2.68a25.07 25.07 0 0 1 -9.6-2.15 24.49 24.49 0 0 1 -9.61-6.9v13.13a26.92 26.92 0 0 0 5.06 2.24 48.19 48.19 0 0 0 15.16 2.24q11.83 0 19.32-6.91a19.76 19.76 0 0 0 6.77-14.93q0-11.87-15.47-19.16zm-206.94-26.44 2.45 4.24-4.87-.48-1.92-.17c-1.35-.12-2.63-.23-3.93-.41-3.62-.5-7.5-1.1-11.44-2v8l11.42-.88h5v45.05l-.91 13.33h18l-.91-13.33v-45h5.05l11.33.88v-10.22h-29.86c.2.33.4.66.59.99zm-102.22-1h-11l.82 13.23v31.52l-29.15-44.74h-13.75l.7 13.33v41l-.81 13.33h10.92l-.6-13.33v-32.2l29.62 45.53h13.15l-.61-13.33v-41zm72.4 32.88h-17.19l.71 13.53v11.77a10 10 0 0 1 -3.41 1.61 16.88 16.88 0 0 1 -4 .43q-7 0-11.47-6.22-4.77-6.72-4.78-18.29 0-15.77 5.77-22.77 4.76-5.84 13.45-5.84a18.66 18.66 0 0 1 9.91 2.92 20.14 20.14 0 0 1 7.38 8v-15.87a54.47 54.47 0 0 0 -8.55-2.38 43.24 43.24 0 0 0 -8.14-.83q-18.4 0-28.41 12-8.6 10.28-8.6 25.6 0 14.22 9.45 23.21t24.42 9a45.55 45.55 0 0 0 23.46-6.23l-.81-8.75v-8.13z" fill="#465b22"/></svg>